# AST/ASF file generated using VICON BodyLanguage
# -----------------------------------------------
:version 1.10
:name VICON
:units
  mass 1.0
  length 0.45
  angle deg
:documentation
   .ast/.asf automatically generated from VICON data using
   VICON BodyBuilder and BodyLanguage model FoxedUp or BRILLIANT.MOD
:root
   order TX TY TZ RX RY RZ
   axis XYZ
   position 0 0 0  
   orientation 0 0 0 
:bonedata
  begin
     id 1 
     name lhipjoint
     direction 0.650112 -0.723553 0.232005 
     length 2.45805 
     axis 0 0 0  XYZ
  end
  begin
     id 2 
     name lfemur
     direction 0.34202 -0.939693 0  
     length 7.00073  
     axis 0 0 20  XYZ
    dof rx ry rz
    limits (-160.0 20.0)
           (-70.0 70.0)
           (-60.0 70.0)
  end
  begin
     id 3 
     name ltibia
     direction 0.34202 -0.939693 0   
     length 7.8748   
     axis 0 0 20   XYZ
    dof rx
    limits (-10.0 170.0)
  end
  begin
     id 4 
     name lfoot
     direction 0.0542825 -0.14914 0.987325   
     length 1.75978   
     axis -90 7.62852e-016 20   XYZ
    dof rx rz
    limits (-45.0 90.0)
           (-70.0 20.0)
  end
  begin
     id 5 
     name ltoes
     direction 1.53509e-011 -4.21906e-011 1   
     length 0.893912   
     axis -90 7.62852e-016 20   XYZ
    dof rx
    limits (-90.0 20.0)
  end
  begin
     id 6 
     name rhipjoint
     direction -0.637897 -0.733345 0.235145   
     length 2.42522  
     axis 0 0 0  XYZ 
  end
  begin
     id 7 
     name rfemur
     direction -0.34202 -0.939693 0   
     length 7.02549   
     axis 0 0 -20   XYZ
    dof rx ry rz
    limits (-160.0 20.0)
           (-70.0 70.0)
           (-70.0 60.0)
  end
  begin
     id 8 
     name rtibia
     direction -0.34202 -0.939693 0   
     length 7.71512   
     axis 0 0 -20   XYZ
    dof rx
    limits (-10.0 170.0)
 end
 begin
     id 9 
     name rfoot
     direction -0.0822618 -0.226012 0.970645   
     length 1.90014  
     axis -90 -7.62852e-016 -20   XYZ
    dof rx rz
    limits (-45.0 90.0)
           (-20.0 70.0)
  end
  begin
     id 10 
     name rtoes
     direction -1.53542e-011 -4.21872e-011 1   
     length 0.957341   
     axis -90 -7.62852e-016 -20   XYZ
    dof rx
    limits (-90.0 20.0)
  end
  begin
     id 11 
     name lowerback
     direction -0.0022947 0.999774 -0.0211557   
     length 1.89909   
     axis 0 0 0   XYZ
    dof rx ry rz
    limits (-20.0 45.0)
           (-30.0 30.0)
           (-30.0 30.0)
  end
  begin
     id 12 
     name upperback
     direction 0.0107737 0.998635 0.0511027   
     length 1.8853   
     axis 0 0 0   XYZ
    dof rx ry rz
    limits (-20.0 45.0)
           (-30.0 30.0)
           (-30.0 30.0)
  end
  begin
     id 13 
     name thorax
     direction 0.011824 0.998136 0.0598754   
     length 1.88911   
     axis 0 0 0   XYZ
    dof rx ry rz
    limits (-20.0 45.0)
           (-30.0 30.0)
           (-30.0 30.0)
  end
  begin
     id 14 
     name lowerneck
     direction -0.0685355 0.990319 0.120714   
     length 1.91222   
     axis 0 0 0   XYZ
    dof rx ry rz
    limits (-20.0 45.0)
           (-30.0 30.0)
           (-30.0 30.0)
  end
  begin
     id 15 
     name upperneck
     direction 0.0886204 0.955665 -0.280805   
     length 1.92526   
     axis 0 0 0   XYZ
    dof rx ry rz
    limits (-20.0 45.0)
           (-30.0 30.0)
           (-30.0 30.0)
  end
  begin
     id 16
     name head
     direction 0.0233423 0.993502 -0.111393  
     length 1.96056  
     axis 0 0 0   XYZ
    dof rx ry rz
    limits (-20.0 45.0)
           (-30.0 30.0)
           (-30.0 30.0)
  end
  begin
     id 17 
     name lclavicle
     direction 0.941873 0.32922 0.0670041  
     length 3.31705  
     axis 0 0 0   XYZ
    dof ry rz
    limits (-20.0 10.0)
           (0.0 20.0)
  end
  begin
     id 18 
     name lhumerus
     direction 1 -4.4898e-011 3.38707e-028   
     length 5.29277   
     axis 180 -30 -90   XYZ
    dof rx ry rz
    limits (-60.0 90.0)
           (-90.0 90.0)
           (-90.0 90.0)
  end
  begin
     id 19
     name lradius
     direction 1 -4.48952e-011 1.63213e-028   
     length 2.85226   
     axis 180 -30 -90   XYZ
    dof rx
    limits (-10.0 170.0)
  end
  begin
     id 20
     name lwrist
     direction 1 -4.49001e-011 1.27856e-027   
     length 1.42613   
     axis -1.61767e-015 90 90   XYZ
    dof ry
    limits (-180.0 0.0)
 end
  begin
     id 21 
     name lhand
     direction 1 -4.48976e-011 2.55931e-027   
     length 0.602097   
     axis -1.63363e-015 90 90   XYZ
    dof rx rz
    limits (-90.0 90.0)
           (-45.0 45.0)
  end
  begin
     id 22 
     name lfingers
     direction 1 -4.48986e-011 5.11684e-027   
     length 0.485426   
     axis -3.26723e-015 90 90   XYZ
    dof rx
    limits (0.0 90.0)
  end
  begin
     id 23
     name lthumb
     direction 0.707107 -6.34915e-011 0.707107   
     length 0.696978   
     axis -90 45 -2.25915e-014   XYZ
    dof rx rz
    limits (-45.0 45.0)
           (-45.0 45.0)
  end
  begin
     id 24 
     name rclavicle
     direction -0.939974 0.327078 0.0973096   
     length 3.10337  
     axis 0 0 0   XYZ 
    dof ry rz
    limits (-10.0 20.0)
           (-20.0 0.0)
  end
  begin
     id 25 
     name rhumerus
     direction -1 -4.48975e-011 1.83745e-027  
     length 5.13304   
     axis 180 30 90   XYZ
    dof rx ry rz
    limits (-90.0 60.0)
           (-90.0 90.0)
           (-90.0 90.0)
  end
  begin
     id 26 
     name rradius
     direction -1 -4.48977e-011 7.1775e-029   
     length 2.74305   
     axis 180 30 90   XYZ
    dof rx
    limits (-10.0 170.0)
  end
  begin
     id 27 
     name rwrist
     direction -1 -4.48977e-011 1.27963e-027   
     length 1.37152   
     axis -1.61767e-015 -90 -90   XYZ
    dof ry
    limits (-180.0 0.0)
  end
  begin
     id 28
     name rhand
     direction -1 -4.4888e-011 2.56782e-027   
     length 0.767976   
     axis -1.63363e-015 -90 -90   XYZ
    dof rx rz
    limits (-90.0 90.0)
           (-45.0 45.0)
  end
  begin
     id 29
     name rfingers
     direction -1 -4.48947e-011 5.12384e-027   
     length 0.619162   
     axis -3.26723e-015 -90 -90   XYZ
    dof rx
    limits (0.0 90.0)
  end
  begin
     id 30
     name rthumb
     direction -0.707107 -6.34857e-011 0.707107   
     length 0.888997   
     axis -90 -45 2.25915e-014   XYZ
    dof rx rz
    limits (-45.0 45.0)
           (-45.0 45.0)
  end
:hierarchy
  begin
    root lhipjoint rhipjoint lowerback
    lhipjoint lfemur
    lfemur ltibia
    ltibia lfoot
    lfoot ltoes
    rhipjoint rfemur
    rfemur rtibia
    rtibia rfoot
    rfoot rtoes
    lowerback upperback
    upperback thorax
    thorax lowerneck lclavicle rclavicle
    lowerneck upperneck
    upperneck head
    lclavicle lhumerus
    lhumerus lradius
    lradius lwrist
    lwrist lhand lthumb
    lhand lfingers
    rclavicle rhumerus
    rhumerus rradius
    rradius rwrist
    rwrist rhand rthumb
    rhand rfingers
  end

#!OML:ASF F:\VICON\USERDATA\INSTALL\rory3\rory3.ASF
:FULLY-SPECIFIED
:DEGREES
302
root 0.167802 16.7352 -2.03808 3.68944 1.8203 -2.78397
lowerback 16.9558 -0.0751948 -2.91711
upperback 11.9855 -0.454779 0.454554
thorax 3.36605 -0.424288 2.18254
lowerneck -10.3455 -12.4989 -17.3005
upperneck 5.58999 -16.9669 22.9874
head 7.0636 -7.63278 8.35973
rclavicle -3.97569e-015 -1.15295e-014
rhumerus 41.5215 27.747 -25.0599
rradius 53.079
rwrist 8.36701
rhand -3.62749 15.0925
rfingers 7.12502
rthumb 22.1116 -13.6631
lclavicle -3.97569e-015 -1.15295e-014
lhumerus 59.7633 -46.589 12.8832
lradius 53.7246
lwrist 16.7302
lhand 8.44614 25.9226
lfingers 7.12502
lthumb 33.6511 52.7831
rfemur -23.6933 2.51377 20.2894
rtibia 37.8766
rfoot -18.9812 -4.21767
rtoes -19.6806
lfemur -26.977 -4.4254 -14.1366
ltibia 42.0042
lfoot -18.222 0.711725
ltoes -22.7047
303
root 0.181799 16.7422 -2.04407 3.85293 2.04239 -2.54959
lowerback 17.0372 -0.0191408 -2.81431
upperback 11.9514 -0.369742 0.535229
thorax 3.28038 -0.375644 2.19938
lowerneck -10.133 -12.5652 -17.2543
upperneck 5.26663 -17.0365 22.9822
head 6.93598 -7.68958 8.34393
rclavicle 7.95139e-015 -5.96354e-015
rhumerus 41.4439 27.7503 -25.3897
rradius 52.9689
rwrist 8.39866
rhand -3.5021 14.9809
rfingers 7.12502
rthumb 22.232 -13.7605
lclavicle 7.95139e-015 -5.96354e-015
lhumerus 60.8359 -46.2325 10.9753
lradius 54.307
lwrist 17.4179
lhand 8.40279 26.1424
lfingers 7.12502
lthumb 33.6099 53.0119
rfemur -23.8545 2.41912 19.9669
rtibia 37.8688
rfoot -18.931 -4.33222
rtoes -19.9042
lfemur -27.1209 -4.51907 -14.4332
ltibia 41.7836
lfoot -17.9335 0.399579
ltoes -21.5015
304
root 0.194891 16.7487 -2.05007 3.94563 2.20586 -2.31647
lowerback 17.196 0.0696903 -2.62475
upperback 11.9661 -0.232089 0.553453
thorax 3.20345 -0.293667 2.09402
lowerneck -9.97416 -12.6673 -17.2195
upperneck 4.96744 -17.1685 23.0901
head 6.85342 -7.76779 8.35587
rclavicle 1.09332e-014 5.56597e-015
rhumerus 41.1619 27.6244 -26.0218
rradius 52.7835
rwrist 8.52755
rhand -3.36282 15.1904
rfingers 7.12502
rthumb 22.3657 -13.5349
lclavicle 1.09332e-014 5.56597e-015
lhumerus 61.9157 -45.776 9.07718
lradius 54.7981
lwrist 17.9299
lhand 8.76637 26.3951
lfingers 7.12502
lthumb 33.9554 53.1888
rfemur -23.969 2.37725 19.643
rtibia 37.8975
rfoot -18.8495 -4.47057
rtoes -20.3201
lfemur -27.191 -4.59188 -14.7293
ltibia 41.6092
lfoot -17.8009 0.300859
ltoes -21.4099
305
root 0.207089 16.7539 -2.05936 4.1039 2.31089 -2.07965
lowerback 17.3193 0.187023 -2.57656
upperback 11.9518 -0.0755866 0.673909
thorax 3.11567 -0.214789 2.17307
lowerneck -9.88072 -12.7684 -17.2963
upperneck 4.79537 -17.2801 23.0917
head 6.81452 -7.83402 8.3507
rclavicle 3.57812e-015 -4.77083e-015
rhumerus 41.0619 27.6666 -26.2183
rradius 52.6514
rwrist 8.57993
rhand -3.39449 15.3962
rfingers 7.12502
rthumb 22.3353 -13.3328
lclavicle 3.57812e-015 -4.77083e-015
lhumerus 62.7461 -45.2784 7.54147
lradius 55.2224
lwrist 18.5326
lhand 8.88446 26.4615
lfingers 7.12502
lthumb 34.0675 53.2302
rfemur -24.1901 2.39658 19.3163
rtibia 37.9586
rfoot -18.7672 -4.63823
rtoes -20.668
lfemur -27.3465 -4.58701 -15.0187
ltibia 41.4689
lfoot -17.776 0.186052
ltoes -21.2873
306
root 0.219041 16.7528 -2.06749 4.2991 2.43951 -1.95185
lowerback 17.3823 0.310672 -2.44906
upperback 11.9042 0.100735 0.837552
thorax 3.02008 -0.122544 2.24951
lowerneck -9.71012 -12.8406 -17.2727
upperneck 4.61646 -17.3615 23.009
head 6.73435 -7.89231 8.3102
rclavicle -2.38542e-015 -4.96962e-015
rhumerus 40.9236 27.8351 -26.2974
rradius 52.5613
rwrist 8.49536
rhand -3.29762 15.4657
rfingers 7.12502
rthumb 22.4283 -13.2521
lclavicle -2.38542e-015 -4.96962e-015
lhumerus 63.6889 -44.8047 5.9204
lradius 55.5742
lwrist 19.2224
lhand 8.58249 26.4139
lfingers 7.12502
lthumb 33.7807 53.2461
rfemur -24.4686 2.41066 19.1019
rtibia 38.0684
rfoot -18.8137 -4.70668
rtoes -20.2808
lfemur -27.5827 -4.5693 -15.1903
ltibia 41.3995
lfoot -17.7157 0.0763659
ltoes -21.1651
307
root 0.231818 16.7505 -2.07327 4.44847 2.5713 -1.79499
lowerback 17.4283 0.404598 -2.29783
upperback 11.9003 0.242835 0.946074
thorax 2.98293 -0.045174 2.25871
lowerneck -9.61074 -12.8945 -17.2301
upperneck 4.4563 -17.4205 22.9711
head 6.67155 -7.93255 8.28317
rclavicle 2.68359e-015 -3.97569e-016
rhumerus 40.8491 28.0212 -26.4284
rradius 52.4655
rwrist 8.35724
rhand -3.00723 15.4944
rfingers 7.12502
rthumb 22.707 -13.1895
lclavicle 2.68359e-015 -3.97569e-016
lhumerus 64.3848 -44.2514 4.44894
lradius 55.9841
lwrist 19.8187
lhand 8.54317 26.5006
lfingers 7.12502
lthumb 33.7433 53.341
rfemur -24.7223 2.30748 18.8681
rtibia 38.255
rfoot -18.9203 -4.74529
rtoes -20.3041
lfemur -27.7861 -4.5123 -15.4121
ltibia 41.3777
lfoot -17.6023 -0.0795356
ltoes -21.2355
308
root 0.244631 16.7447 -2.0777 4.58737 2.68247 -1.60169
lowerback 17.489 0.502256 -2.12805
upperback 11.9055 0.392272 1.00171
thorax 2.94819 0.0389351 2.20014
lowerneck -9.53678 -12.9754 -17.1884
upperneck 4.31896 -17.5281 23.0054
head 6.63926 -7.99101 8.27108
rclavicle -1.16289e-014 3.97569e-016
rhumerus 40.7304 28.1979 -26.5412
rradius 52.4059
rwrist 8.28187
rhand -3.01085 15.2735
rfingers 7.12502
rthumb 22.7036 -13.4109
lclavicle -1.16289e-014 3.97569e-016
lhumerus 65.0039 -43.6856 3.02787
lradius 56.4142
lwrist 20.3924
lhand 8.54031 26.5483
lfingers 7.12502
lthumb 33.7406 53.3893
rfemur -24.994 2.18987 18.5975
rtibia 38.5036
rfoot -19.0117 -4.82493
rtoes -20.3106
lfemur -28.0112 -4.41634 -15.6781
ltibia 41.4291
lfoot -17.5221 -0.415419
ltoes -20.32
309
root 0.25517 16.7355 -2.08558 4.71981 2.76902 -1.35496
lowerback 17.5995 0.609666 -2.14201
upperback 11.9134 0.529108 1.08049
thorax 2.89249 0.105096 2.27117
lowerneck -9.4923 -13.0378 -17.0726
upperneck 4.16725 -17.6027 22.9681
head 6.5852 -8.03393 8.22736
rclavicle -6.70898e-016 4.57205e-015
rhumerus 40.7496 28.383 -26.3962
rradius 52.4455
rwrist 8.08615
rhand -2.90094 14.9724
rfingers 7.12502
rthumb 22.809 -13.6991
lclavicle -6.70898e-016 4.57205e-015
lhumerus 65.4112 -43.0787 1.83744
lradius 56.7233
lwrist 20.8678
lhand 8.36369 26.5988
lfingers 7.12502
lthumb 33.5728 53.4764
rfemur -25.3078 2.06886 18.273
rtibia 38.8065
rfoot -19.0863 -4.83687
rtoes -20.2956
lfemur -28.2754 -4.30452 -15.9988
ltibia 41.5273
lfoot -17.501 -0.778062
ltoes -19.3224
310
root 0.265406 16.7247 -2.09586 4.83158 2.81669 -1.27031
lowerback 17.7405 0.719712 -2.06212
upperback 11.9222 0.680548 1.2651
thorax 2.8203 0.179681 2.39856
lowerneck -9.3766 -13.0974 -17.2213
upperneck 3.94814 -17.6533 23.0469
head 6.53191 -8.07238 8.27323
rclavicle -2.26118e-015 -1.04113e-014
rhumerus 40.8583 28.5921 -26.2096
rradius 52.3651
rwrist 8.03587
rhand -2.69942 14.8348
rfingers 7.12502
rthumb 23.0024 -13.8126
lclavicle -2.26118e-015 -1.04113e-014
lhumerus 65.6785 -42.4244 0.978795
lradius 56.8899
lwrist 21.2931
lhand 8.3877 26.5496
lfingers 7.12502
lthumb 33.5956 53.4223
rfemur -25.6506 1.99416 18.1323
rtibia 39.1515
rfoot -19.1542 -4.87067
rtoes -20.2921
lfemur -28.5719 -4.1246 -16.1468
ltibia 41.712
lfoot -17.476 -0.950254
ltoes -19.7152
311
root 0.27611 16.7123 -2.10466 4.93841 2.89746 -1.16117
lowerback 17.8765 0.829623 -1.91817
upperback 11.9183 0.841374 1.40952
thorax 2.73647 0.26476 2.44514
lowerneck -9.18804 -13.1789 -17.3669
upperneck 3.71221 -17.7518 23.1961
head 6.47961 -8.13653 8.33763
rclavicle 5.56597e-015 4.67144e-015
rhumerus 40.7809 28.7876 -26.3567
rradius 52.1356
rwrist 8.15686
rhand -2.60945 14.9838
rfingers 7.12502
rthumb 23.0887 -13.6529
lclavicle 5.56597e-015 4.67144e-015
lhumerus 65.9857 -41.7939 0.129974
lradius 57.0468
lwrist 21.6218
lhand 8.30426 26.4865
lfingers 7.12502
lthumb 33.5163 53.3763
rfemur -26.0122 1.91695 17.9592
rtibia 39.5422
rfoot -19.2585 -4.9189
rtoes -20.6153
lfemur -28.892 -3.91907 -16.3328
ltibia 41.9743
lfoot -17.5079 -1.09017
ltoes -20.6204
312
root 0.285842 16.6954 -2.11499 5.06356 3.0482 -1.10006
lowerback 17.9946 0.896713 -1.66068
upperback 11.9444 0.963459 1.51599
thorax 2.69841 0.337704 2.39319
lowerneck -9.17261 -13.2871 -17.3572
upperneck 3.59079 -17.8914 23.2566
head 6.47563 -8.20612 8.33054
rclavicle -6.16232e-015 9.54166e-015
rhumerus 40.689 28.9508 -26.5474
rradius 52.0188
rwrist 8.22303
rhand -2.49778 15.1167
rfingers 7.12502
rthumb 23.1959 -13.5066
lclavicle -6.16232e-015 9.54166e-015
lhumerus 66.1983 -41.0861 -0.5642
lradius 57.1123
lwrist 21.7597
lhand 8.3779 26.3702
lfingers 7.12502
lthumb 33.5863 53.2448
rfemur -26.4079 1.77049 17.8478
rtibia 39.9823
rfoot -19.4219 -4.93752
rtoes -20.6594
lfemur -29.3081 -3.76373 -16.4518
ltibia 42.3319
lfoot -17.5604 -1.37345
ltoes -20.7961
313
root 0.295133 16.6731 -2.12654 5.14008 3.20703 -1.09939
lowerback 18.1706 0.924664 -1.37244
upperback 11.9526 1.03903 1.61853
thorax 2.6148 0.389664 2.32575
lowerneck -9.11092 -13.3098 -17.3328
upperneck 3.48204 -17.9233 23.33
head 6.44547 -8.22582 8.34865
rclavicle -1.61016e-014 -1.31198e-014
rhumerus 40.6827 29.2858 -26.6599
rradius 51.9068
rwrist 8.3008
rhand -2.52129 15.0627
rfingers 7.12502
rthumb 23.1733 -13.5633
lclavicle -1.61016e-014 -1.31198e-014
lhumerus 66.2611 -40.4458 -1.12725
lradius 57.1039
lwrist 21.9134
lhand 8.51708 26.4328
lfingers 7.12502
lthumb 33.7185 53.2786
rfemur -26.7706 1.60276 17.8167
rtibia 40.4719
rfoot -19.6029 -5.03212
rtoes -20.8294
lfemur -29.7146 -3.63975 -16.495
ltibia 42.7418
lfoot -17.6728 -1.62495
ltoes -20.8529
314
root 0.303463 16.6492 -2.13679 5.18276 3.28323 -1.04501
lowerback 18.3626 0.989232 -1.26476
upperback 11.9456 1.13739 1.7654
thorax 2.50351 0.440983 2.40303
lowerneck -8.96053 -13.3225 -17.4634
upperneck 3.34817 -17.9371 23.4573
head 6.40993 -8.24393 8.41779
rclavicle 8.54774e-015 4.17448e-015
rhumerus 40.751 29.7528 -26.6686
rradius 51.7579
rwrist 8.3451
rhand -2.69709 14.9803
rfingers 7.12502
rthumb 23.0047 -13.6669
lclavicle 8.54774e-015 4.17448e-015
lhumerus 66.1633 -39.8529 -1.47289
lradius 57.0344
lwrist 22.0824
lhand 8.53784 26.4602
lfingers 7.12502
lthumb 33.7382 53.3017
rfemur -27.1426 1.44132 17.7204
rtibia 41.011
rfoot -19.7845 -4.99821
rtoes -20.7606
lfemur -30.0837 -3.40489 -16.6149
ltibia 43.1923
lfoot -17.7586 -1.91685
ltoes -20.6989
315
root 0.313166 16.627 -2.14689 5.20802 3.38389 -0.919329
lowerback 18.6059 1.06143 -1.22304
upperback 11.9462 1.23697 1.92103
thorax 2.37345 0.489107 2.5258
lowerneck -8.84486 -13.3611 -17.6265
upperneck 3.20396 -17.9781 23.5942
head 6.38741 -8.27339 8.48821
rclavicle 1.19271e-015 1.39149e-014
rhumerus 40.8459 30.2234 -26.4916
rradius 51.6885
rwrist 8.236
rhand -2.83397 14.7644
rfingers 7.12502
rthumb 22.8733 -13.8991
lclavicle 1.19271e-015 1.39149e-014
lhumerus 66.0645 -39.24 -1.7031
lradius 56.9195
lwrist 22.1224
lhand 8.39601 26.3459
lfingers 7.12502
lthumb 33.6035 53.2169
rfemur -27.5126 1.25686 17.54
rtibia 41.5927
rfoot -19.998 -4.92637
rtoes -20.4611
lfemur -30.4222 -3.20758 -16.8209
ltibia 43.6481
lfoot -17.7934 -2.42072
ltoes -19.5547
316
root 0.320991 16.6028 -2.15702 5.2065 3.45184 -0.758273
lowerback 18.8696 1.13157 -1.22742
upperback 11.9534 1.32705 2.02214
thorax 2.24108 0.531909 2.61768
lowerneck -8.72262 -13.3747 -17.6679
upperneck 3.0374 -17.992 23.701
head 6.33615 -8.2906 8.53473
rclavicle -2.78299e-015 7.15625e-015
rhumerus 40.9223 30.6862 -26.4179
rradius 51.6776
rwrist 8.20982
rhand -2.80799 14.6045
rfingers 7.12502
rthumb 22.8982 -14.0559
lclavicle -2.78299e-015 7.15625e-015
lhumerus 65.8797 -38.6236 -1.75842
lradius 56.6891
lwrist 21.998
lhand 8.45491 26.2662
lfingers 7.12502
lthumb 33.6594 53.1249
rfemur -27.8646 1.10075 17.3348
rtibia 42.2024
rfoot -20.2012 -4.97414
rtoes -20.4156
lfemur -30.7339 -3.00596 -17.0661
ltibia 44.1295
lfoot -17.913 -2.71556
ltoes -19.2934
